# xmcd
#
# Track frame offsets:
#	151
#	14093
#	26618
#	37307
#	55318
#	67319
#	80009
#	97232
#	111781
#	127259
#
# Disc length: 1877 seconds
#
# Revision: 0
# Processed by: cddbd v1.5.2PL0 Copyright (c) Steve Scherf et al.
# Submitted via: dBpowerAMP V4.0
#
DISCID=9e07530a
DTITLE=Patsy and Peggy Lynn - The Lynns ll
DYEAR=1900
DGENRE=
TTITLE0=Baby Blue
TTITLE1=One Of These Lonely Nights
TTITLE2=I Ain't Been Cheatin' As Long As You
TTITLE3=Where Does She Get It
TTITLE4=Bad About You
TTITLE5=That's All I've Got To Say
TTITLE6=Sara
TTITLE7=Mama, Your Baby's Growing Up
TTITLE8=Everytime You Cross My Mind
TTITLE9=Half A Day Away
EXTD=The Lynnsll
EXTT0=
EXTT1=
EXTT2=
EXTT3=
EXTT4=
EXTT5=
EXTT6=
EXTT7=
EXTT8=
EXTT9=
PLAYORDER=
